#define tile_256_width 16
#define tile_256_height 16
static unsigned char tile_256_bits[] = {
   0xff, 0xff, 0x01, 0x80, 0x01, 0x9e, 0x01, 0x90, 0x01, 0x9e, 0x01, 0x82,
   0x01, 0x9e, 0x01, 0x80, 0x01, 0x80, 0x79, 0x9e, 0x09, 0x82, 0x79, 0x9e,
   0x41, 0x92, 0x79, 0x9e, 0x01, 0x80, 0xff, 0xff };
