#define tile_4_width 16
#define tile_4_height 16
static unsigned char tile_4_bits[] = {
   0xff, 0xff, 0x01, 0x80, 0x01, 0x80, 0x01, 0x80, 0x01, 0x80, 0x01, 0x80,
   0x01, 0x80, 0x01, 0x80, 0x01, 0x80, 0x01, 0x92, 0x01, 0x92, 0x01, 0x9e,
   0x01, 0x90, 0x01, 0x90, 0x01, 0x80, 0xff, 0xff };
