#define tile_2_width 16
#define tile_2_height 16
static unsigned char tile_2_bits[] = {
   0xff, 0xff, 0x01, 0x80, 0x01, 0x80, 0x01, 0x80, 0x01, 0x80, 0x01, 0x80,
   0x01, 0x80, 0x01, 0x80, 0x01, 0x80, 0x01, 0x9e, 0x01, 0x90, 0x01, 0x9e,
   0x01, 0x82, 0x01, 0x9e, 0x01, 0x80, 0xff, 0xff };
