#define tile_128_width 16
#define tile_128_height 16
static unsigned char tile_128_bits[] = {
   0xff, 0xff, 0x01, 0x80, 0x01, 0x90, 0x01, 0x90, 0x01, 0x90, 0x01, 0x90,
   0x01, 0x90, 0x01, 0x80, 0x01, 0x80, 0x79, 0x9e, 0x41, 0x92, 0x79, 0x9e,
   0x09, 0x92, 0x79, 0x9e, 0x01, 0x80, 0xff, 0xff };
