#define tile_32_width 16
#define tile_32_height 16
static unsigned char tile_32_bits[] = {
   0xff, 0xff, 0x01, 0x80, 0x01, 0x80, 0x01, 0x80, 0x01, 0x80, 0x01, 0x80,
   0x01, 0x80, 0x01, 0x80, 0x01, 0x80, 0x79, 0x9e, 0x41, 0x90, 0x71, 0x9e,
   0x41, 0x82, 0x79, 0x9e, 0x01, 0x80, 0xff, 0xff };
