#define game_over_width 64
#define game_over_height 64
static unsigned char game_over_bits[] = {
   0x00, 0x00, 0x00, 0x00, 0x00, 0x00, 0x00, 0x00, 0x00, 0x00, 0x00, 0x00,
   0x00, 0x00, 0x00, 0x00, 0x00, 0x00, 0x00, 0x00, 0x00, 0x00, 0x00, 0x00,
   0x00, 0x00, 0x00, 0x00, 0x00, 0x00, 0x00, 0x00, 0x00, 0x00, 0x00, 0x00,
   0x00, 0x00, 0x00, 0x00, 0x00, 0x00, 0x00, 0x00, 0x00, 0x00, 0x00, 0x00,
   0x00, 0x00, 0x00, 0x00, 0x00, 0x00, 0x00, 0x00, 0x00, 0x00, 0x00, 0x00,
   0x00, 0x00, 0x00, 0x00, 0x00, 0x00, 0x00, 0x00, 0x00, 0x00, 0x00, 0x00,
   0x00, 0x00, 0x00, 0x00, 0x00, 0x00, 0x00, 0x00, 0x00, 0x00, 0x00, 0x00,
   0x00, 0x00, 0x00, 0x00, 0x00, 0x00, 0x00, 0x00, 0x00, 0x00, 0x00, 0x00,
   0x00, 0x00, 0x00, 0x00, 0x00, 0x00, 0x00, 0x00, 0x00, 0x00, 0x00, 0x00,
   0x00, 0x00, 0x00, 0x00, 0x00, 0x00, 0x00, 0x00, 0x00, 0x00, 0x00, 0x00,
   0x80, 0x3f, 0xc0, 0x03, 0x1e, 0xf0, 0xf8, 0x0f, 0xe0, 0x7f, 0xc0, 0x03,
   0x1e, 0xf0, 0xf8, 0x0f, 0xf0, 0x70, 0xe0, 0x07, 0x3e, 0xf8, 0x38, 0x00,
   0x70, 0x00, 0x60, 0x06, 0x3e, 0xf8, 0x38, 0x00, 0x38, 0x00, 0x70, 0x0e,
   0x6e, 0xec, 0x38, 0x00, 0x38, 0x00, 0x70, 0x0e, 0x6e, 0xec, 0xf8, 0x07,
   0x38, 0xf8, 0x30, 0x0c, 0xee, 0xee, 0xf8, 0x07, 0x38, 0xf8, 0x38, 0x1c,
   0xce, 0xe6, 0x38, 0x00, 0x38, 0xe0, 0xf8, 0x1f, 0xce, 0xe7, 0x38, 0x00,
   0x70, 0xe0, 0xfc, 0x3f, 0x8e, 0xe3, 0x38, 0x00, 0xf0, 0xe0, 0x1c, 0x38,
   0x8e, 0xe3, 0x38, 0x00, 0xe0, 0xff, 0x1c, 0x38, 0x0e, 0xe0, 0xf8, 0x0f,
   0x80, 0x3f, 0x1e, 0x78, 0x0e, 0xe0, 0xf8, 0x0f, 0x00, 0x00, 0x00, 0x00,
   0x00, 0x00, 0x00, 0x00, 0x00, 0x00, 0x00, 0x00, 0x00, 0x00, 0x00, 0x00,
   0x00, 0x00, 0x00, 0x00, 0x00, 0x00, 0x00, 0x00, 0x00, 0x00, 0x00, 0x00,
   0x00, 0x00, 0x00, 0x00, 0x00, 0x00, 0x00, 0x00, 0x00, 0x00, 0x00, 0x00,
   0x00, 0x00, 0x00, 0x00, 0x00, 0x00, 0x00, 0x00, 0x00, 0x00, 0x00, 0x00,
   0x00, 0x00, 0x00, 0x00, 0x00, 0x00, 0x00, 0x00, 0x00, 0x00, 0x00, 0x00,
   0x00, 0x3e, 0x38, 0xc0, 0xf9, 0x8f, 0x7f, 0x00, 0x80, 0xff, 0x78, 0xe0,
   0xf9, 0x8f, 0xff, 0x00, 0xc0, 0xe3, 0x71, 0xe0, 0x38, 0x80, 0xc3, 0x01,
   0xc0, 0xc1, 0xf1, 0xf0, 0x38, 0x80, 0xc3, 0x01, 0xe0, 0x80, 0xe3, 0x70,
   0x38, 0x80, 0xc3, 0x01, 0xe0, 0x80, 0xe3, 0x70, 0xf8, 0x87, 0xe3, 0x01,
   0xe0, 0x80, 0xe3, 0x79, 0xf8, 0x87, 0xff, 0x00, 0xe0, 0x80, 0xc3, 0x39,
   0x38, 0x80, 0xff, 0x00, 0xe0, 0x80, 0xc3, 0x39, 0x38, 0x80, 0xe3, 0x00,
   0xc0, 0xc1, 0x81, 0x1f, 0x38, 0x80, 0xc3, 0x01, 0xc0, 0xe3, 0x81, 0x1f,
   0x38, 0x80, 0xc3, 0x03, 0x80, 0xff, 0x80, 0x1f, 0xf8, 0x8f, 0x83, 0x03,
   0x00, 0x3e, 0x00, 0x0f, 0xf8, 0x8f, 0x83, 0x07, 0x00, 0x00, 0x00, 0x00,
   0x00, 0x00, 0x00, 0x00, 0x00, 0x00, 0x00, 0x00, 0x00, 0x00, 0x00, 0x00,
   0x00, 0x00, 0x00, 0x00, 0x00, 0x00, 0x00, 0x00, 0x00, 0x00, 0x00, 0x00,
   0x00, 0x00, 0x00, 0x00, 0x00, 0x00, 0x00, 0x00, 0x00, 0x00, 0x00, 0x00,
   0x00, 0x00, 0x00, 0x00, 0x00, 0x00, 0x00, 0x00, 0x00, 0x00, 0x00, 0x00,
   0x00, 0x00, 0x00, 0x00, 0x00, 0x00, 0x00, 0x00, 0x00, 0x00, 0x00, 0x00,
   0x00, 0x00, 0x00, 0x00, 0x00, 0x00, 0x00, 0x00, 0x00, 0x00, 0x00, 0x00,
   0x00, 0x00, 0x00, 0x00, 0x00, 0x00, 0x00, 0x00, 0x00, 0x00, 0x00, 0x00,
   0x00, 0x00, 0x00, 0x00, 0x00, 0x00, 0x00, 0x00, 0x00, 0x00, 0x00, 0x00,
   0x00, 0x00, 0x00, 0x00, 0x00, 0x00, 0x00, 0x00, 0x00, 0x00, 0x00, 0x00,
   0x00, 0x00, 0x00, 0x00, 0x00, 0x00, 0x00, 0x00 };
