#define tile_64_width 16
#define tile_64_height 16
static unsigned char tile_64_bits[] = {
   0x00, 0x00, 0xff, 0x7f, 0x01, 0x40, 0x01, 0x40, 0x01, 0x40, 0x01, 0x40,
   0x01, 0x40, 0x01, 0x40, 0x01, 0x40, 0x79, 0x52, 0x09, 0x52, 0x79, 0x5e,
   0x49, 0x50, 0x79, 0x50, 0x01, 0x40, 0xff, 0x7f };
