#define tile_8_width 16
#define tile_8_height 16
static unsigned char tile_8_bits[] = {
   0x00, 0x00, 0xff, 0x7f, 0x01, 0x40, 0x01, 0x40, 0x01, 0x40, 0x01, 0x40,
   0x01, 0x40, 0x01, 0x40, 0x01, 0x40, 0x01, 0x5e, 0x01, 0x52, 0x01, 0x5e,
   0x01, 0x52, 0x01, 0x5e, 0x01, 0x40, 0xff, 0x7f };
