#define tile_64_width 16
#define tile_64_height 16
static unsigned char tile_64_bits[] = {
   0xff, 0xff, 0x01, 0x80, 0x01, 0x80, 0x01, 0x80, 0x01, 0x80, 0x01, 0x80,
   0x01, 0x80, 0x01, 0x80, 0x01, 0x80, 0x79, 0x92, 0x09, 0x92, 0x79, 0x9e,
   0x49, 0x90, 0x79, 0x90, 0x01, 0x80, 0xff, 0xff };
