#define tile_16_width 16
#define tile_16_height 16
static unsigned char tile_16_bits[] = {
   0xff, 0xff, 0x01, 0x80, 0x01, 0x80, 0x01, 0x80, 0x01, 0x80, 0x01, 0x80,
   0x01, 0x80, 0x01, 0x80, 0x01, 0x80, 0x41, 0x9e, 0x41, 0x82, 0x41, 0x9e,
   0x41, 0x92, 0x41, 0x9e, 0x01, 0x80, 0xff, 0xff };
