#define tile_32_width 16
#define tile_32_height 16
static unsigned char tile_32_bits[] = {
   0x00, 0x00, 0xff, 0x7f, 0x01, 0x40, 0x01, 0x40, 0x01, 0x40, 0x01, 0x40,
   0x01, 0x40, 0x01, 0x40, 0x01, 0x40, 0x79, 0x5e, 0x41, 0x50, 0x71, 0x5e,
   0x41, 0x42, 0x79, 0x5e, 0x01, 0x40, 0xff, 0x7f };
