#define tile_2_width 16
#define tile_2_height 16
static unsigned char tile_2_bits[] = {
   0x00, 0x00, 0xff, 0x7f, 0x01, 0x40, 0x01, 0x40, 0x01, 0x40, 0x01, 0x40,
   0x01, 0x40, 0x01, 0x40, 0x01, 0x40, 0x01, 0x5e, 0x01, 0x50, 0x01, 0x5e,
   0x01, 0x42, 0x01, 0x5e, 0x01, 0x40, 0xff, 0x7f };
