#define tile_1024_width 16
#define tile_1024_height 16
static unsigned char tile_1024_bits[] = {
   0x00, 0x00, 0xff, 0x7f, 0x01, 0x40, 0x41, 0x5e, 0x41, 0x52, 0x41, 0x52,
   0x41, 0x52, 0x41, 0x5e, 0x01, 0x40, 0x79, 0x52, 0x41, 0x52, 0x79, 0x5e,
   0x09, 0x50, 0x79, 0x50, 0x01, 0x40, 0xff, 0x7f };
