#define tile_512_width 16
#define tile_512_height 16
static unsigned char tile_512_bits[] = {
   0x00, 0x00, 0xff, 0x7f, 0x01, 0x40, 0x01, 0x5e, 0x01, 0x42, 0x01, 0x5e,
   0x01, 0x50, 0x01, 0x5e, 0x01, 0x40, 0x41, 0x5e, 0x41, 0x50, 0x41, 0x5e,
   0x41, 0x42, 0x41, 0x5e, 0x01, 0x40, 0xff, 0x7f };
