#define tile_2048_width 16
#define tile_2048_height 16
static unsigned char tile_2048_bits[] = {
   0xff, 0xff, 0x01, 0x80, 0x79, 0x9e, 0x41, 0x92, 0x79, 0x92, 0x09, 0x92,
   0x79, 0x9e, 0x01, 0x80, 0x01, 0x80, 0x49, 0x9e, 0x49, 0x92, 0x79, 0x9e,
   0x41, 0x92, 0x41, 0x9e, 0x01, 0x80, 0xff, 0xff };
