#define tile_512_width 16
#define tile_512_height 16
static unsigned char tile_512_bits[] = {
   0xff, 0xff, 0x01, 0x80, 0x01, 0x9e, 0x01, 0x82, 0x01, 0x9e, 0x01, 0x90,
   0x01, 0x9e, 0x01, 0x80, 0x01, 0x80, 0x41, 0x9e, 0x41, 0x90, 0x41, 0x9e,
   0x41, 0x82, 0x41, 0x9e, 0x01, 0x80, 0xff, 0xff };
