#define tile_8_width 16
#define tile_8_height 16
static unsigned char tile_8_bits[] = {
   0xff, 0xff, 0x01, 0x80, 0x01, 0x80, 0x01, 0x80, 0x01, 0x80, 0x01, 0x80,
   0x01, 0x80, 0x01, 0x80, 0x01, 0x80, 0x01, 0x9e, 0x01, 0x92, 0x01, 0x9e,
   0x01, 0x92, 0x01, 0x9e, 0x01, 0x80, 0xff, 0xff };
