#define tile_8_width 16
#define tile_8_height 16
static unsigned char tile_8_bits[] = {
   0xff, 0xff, 0x01, 0x80, 0x01, 0x80, 0x01, 0x80, 0x01, 0x80, 0x9d, 0xbc,
   0x51, 0xa5, 0x09, 0x98, 0x05, 0xa4, 0x1d, 0xbc, 0x01, 0x80, 0x01, 0x80,
   0x01, 0x80, 0x01, 0x80, 0x01, 0x80, 0xff, 0xff };
