#define tile_4_width 16
#define tile_4_height 16
static unsigned char tile_4_bits[] = {
   0x00, 0x00, 0xff, 0x7f, 0x01, 0x40, 0x01, 0x40, 0x01, 0x40, 0x01, 0x40,
   0x01, 0x40, 0x01, 0x40, 0x01, 0x40, 0x01, 0x52, 0x01, 0x52, 0x01, 0x5e,
   0x01, 0x50, 0x01, 0x50, 0x01, 0x40, 0xff, 0x7f };
