#define ball_width 8
#define ball_height 8
static unsigned char ball_bits[] = {
   0x1c, 0x7e, 0xfe, 0xff, 0xff, 0xfe, 0x7e, 0x3c };
   
